<svg width="60" height="58" viewBox="0 0 60 58" fill="none" xmlns="http://www.w3.org/2000/svg">
<path d="M59 16C58.625 15.375 54.9238 13.7763 54.9238 13.7763C55.5675 13.4438 56.0075 13.375 56.0075 12C56.0075 10.5 56 10 55 10H51.6075C51.5938 9.97 51.5787 9.93875 51.565 9.9075C49.375 5.125 49.0812 3.91625 45.815 2.28875C41.4338 0.11 33.22 0 30 0C26.78 0 18.5662 0.11 14.1887 2.28875C10.9187 3.91375 11 4.75 8.43875 9.9075C8.43875 9.92125 8.4125 9.9575 8.38875 10H4.9925C4 10 3.9925 10.5 3.9925 12C3.9925 13.375 4.4325 13.4438 5.07625 13.7763C5.07625 13.7763 1.5 15.5 1 16C0.5 16.5 0 20 0 26C0 32 0.5 38 0.5 38H1.9925C1.9925 39.75 2.25 40 3 40H13C13.75 40 14 39.75 14 38H46C46 39.75 46.25 40 47 40H57.25C57.75 40 58 39.625 58 38H59.5C59.5 38 60 31.875 60 26C60 20.125 59.375 16.625 59 16ZM13.6575 21.6175C11.3809 21.8664 9.09266 21.9941 6.8025 22C4.25 22 4.1625 22.1637 3.9825 20.57C3.91484 19.8405 3.93624 19.1055 4.04625 18.3813L4.125 18H4.5C6 18 7.40875 18.0637 10.0688 18.8475C11.4217 19.2535 12.6942 19.8903 13.83 20.73C14.375 21.125 14.5 21.5 14.5 21.5L13.6575 21.6175ZM44.5525 30.6175L44 32H16C16 32 16.0487 31.9238 15.375 30.6025C14.875 29.625 15.5 29 16.4888 28.645C18.4038 27.955 24 26 30 26C36 26 41.7075 27.685 43.5625 28.645C44.25 29 45.1038 29.25 44.5525 30.625V30.6175ZM12.4275 13.5513C12.0237 13.5746 11.6191 13.5775 11.215 13.56C11.5413 12.98 11.7225 12.3338 12.0413 11.6588C13.0413 9.53375 14.185 7.12875 16.2213 6.115C19.1637 4.65 25.2625 3.99 30 3.99C34.7375 3.99 40.8363 4.645 43.7788 6.115C45.815 7.12875 46.9538 9.535 47.9588 11.6588C48.28 12.34 48.4588 12.9913 48.7938 13.575C48.5438 13.5888 48.2562 13.575 47.57 13.5513H12.4275ZM55.8925 20.565C55.625 22.125 55.875 22 53.1975 22C50.9073 21.9941 48.6191 21.8664 46.3425 21.6175C45.9862 21.5538 45.885 20.9525 46.17 20.73C47.3 19.8809 48.5743 19.2432 49.9313 18.8475C52.5913 18.0637 54.0888 17.9587 55.5675 18.0112C55.6668 18.015 55.7612 18.0554 55.8325 18.1247C55.9039 18.1939 55.947 18.2871 55.9538 18.3862C56.0244 19.1139 56.0038 19.8475 55.8925 20.57V20.565Z" fill="black"/>
<path d="M6.608 44.56C6.352 44.48 6.012 44.44 5.588 44.44H4.592L4.556 47.464L5.468 47.452C6.06 47.444 6.532 47.324 6.884 47.092C7.236 46.86 7.412 46.42 7.412 45.772C7.412 45.116 7.144 44.712 6.608 44.56ZM4.544 48.232L4.508 51.196L5.504 51.28C5.504 51.504 5.436 51.744 5.3 52H2.54L2.504 51.58C2.84 51.46 3.184 51.368 3.536 51.304C3.488 48.264 3.448 45.944 3.416 44.344C3.192 44.312 2.84 44.216 2.36 44.056C2.36 43.952 2.38 43.8 2.42 43.6H5.12C6.584 43.6 7.536 43.78 7.976 44.14C8.408 44.484 8.624 45.024 8.624 45.76C8.624 47 7.944 47.804 6.584 48.172L8.636 51.208L9.632 51.292C9.632 51.508 9.564 51.744 9.428 52H7.952L5.432 48.232H4.544ZM13.355 51.328C13.707 51.328 14.259 51.16 15.011 50.824C15.163 51.032 15.243 51.216 15.251 51.376C14.843 51.616 14.443 51.804 14.051 51.94C13.659 52.076 13.379 52.144 13.211 52.144C12.283 52.144 11.575 51.868 11.087 51.316C10.599 50.756 10.355 49.976 10.355 48.976C10.355 47.976 10.591 47.192 11.063 46.624C11.543 46.048 12.259 45.76 13.211 45.76C13.947 45.76 14.507 46.024 14.891 46.552C15.283 47.08 15.479 47.788 15.479 48.676C15.415 48.788 15.363 48.864 15.323 48.904L11.459 48.844C11.467 49.652 11.607 50.268 11.879 50.692C12.159 51.116 12.651 51.328 13.355 51.328ZM14.387 48.16C14.387 47.632 14.291 47.224 14.099 46.936C13.907 46.64 13.587 46.492 13.139 46.492C12.691 46.492 12.291 46.576 11.939 46.744C11.699 47.224 11.547 47.716 11.483 48.22C12.115 48.212 13.083 48.192 14.387 48.16ZM20.1916 45.76C20.9596 45.76 21.5156 45.952 21.8596 46.336C22.2036 46.712 22.3756 47.288 22.3756 48.064C22.3756 48.288 22.3436 49.328 22.2796 51.184L23.2876 51.28C23.2876 51.504 23.2196 51.744 23.0836 52H20.3236L20.2876 51.58C20.6556 51.452 21.0156 51.356 21.3676 51.292C21.3196 49.196 21.2756 48.032 21.2356 47.8C21.2036 47.56 21.1476 47.352 21.0676 47.176C20.9876 47 20.8676 46.876 20.7076 46.804C20.5476 46.732 20.3356 46.696 20.0716 46.696C19.5436 46.696 19.0316 46.824 18.5356 47.08C18.4876 48.904 18.4556 50.272 18.4396 51.184L19.4476 51.28C19.4476 51.504 19.3796 51.744 19.2436 52H16.4836L16.4476 51.58C16.8156 51.452 17.1756 51.356 17.5276 51.292C17.4796 49.26 17.4396 47.756 17.4076 46.78C16.9676 46.756 16.6156 46.708 16.3516 46.636L16.3996 46.012C16.8316 45.892 17.4596 45.832 18.2836 45.832C18.3796 45.976 18.4516 46.184 18.4996 46.456C18.8436 46.272 19.1876 46.112 19.5316 45.976C19.8836 45.832 20.1036 45.76 20.1916 45.76ZM24.7302 51.256L24.6342 46.732H23.7102L23.6742 46.312C23.7542 46.256 23.9862 46.152 24.3702 46L25.3542 44.464C25.5142 44.48 25.6382 44.52 25.7262 44.584L25.7142 45.904C26.3142 45.904 26.8062 45.944 27.1902 46.024C27.1902 46.24 27.1222 46.476 26.9862 46.732H25.6902C25.6742 47.692 25.6582 49.148 25.6422 51.1C26.0902 51.124 26.5382 51.204 26.9862 51.34L26.9742 51.76C26.8622 51.832 26.5742 51.916 26.1102 52.012C25.6542 52.108 25.2782 52.156 24.9822 52.156C24.9422 52.092 24.8902 51.956 24.8262 51.748C24.7622 51.532 24.7302 51.368 24.7302 51.256ZM33.7652 49.711L33.7302 51.517C33.9309 51.531 34.1316 51.5637 34.3322 51.615L34.3182 51.86C34.2436 51.8973 34.1082 51.9393 33.9122 51.986C33.7209 52.028 33.5319 52.049 33.3452 52.049C33.2612 51.881 33.2146 51.72 33.2052 51.566C32.6732 51.916 32.2999 52.091 32.0852 52.091C31.7539 52.091 31.4879 52.0023 31.2872 51.825C31.0866 51.6477 30.9862 51.4003 30.9862 51.083C30.9862 50.3503 31.4342 49.9723 32.3302 49.949C32.8529 49.935 33.1166 49.928 33.1212 49.928L33.1142 49.69C33.1049 49.368 33.0442 49.137 32.9322 48.997C32.8202 48.8523 32.6196 48.78 32.3302 48.78C32.2089 48.78 32.0782 48.808 31.9382 48.864L31.7702 49.564C31.7469 49.5687 31.7072 49.571 31.6512 49.571L31.3642 49.55C31.2896 49.3493 31.2499 49.0717 31.2452 48.717C31.3339 48.6703 31.5369 48.6003 31.8542 48.507C32.1716 48.409 32.3746 48.36 32.4632 48.36C32.9392 48.36 33.2752 48.465 33.4712 48.675C33.6672 48.885 33.7652 49.2303 33.7652 49.711ZM32.2392 51.615C32.3746 51.615 32.6872 51.4633 33.1772 51.16L33.1422 50.285C32.8249 50.313 32.5589 50.3387 32.3442 50.362C32.1296 50.3853 31.9569 50.4483 31.8262 50.551C31.6956 50.649 31.6302 50.8053 31.6302 51.02C31.6302 51.4167 31.8332 51.615 32.2392 51.615ZM41.3578 52.156C39.0058 52.156 37.8298 50.68 37.8298 47.728C37.8298 46.328 38.1138 45.264 38.6818 44.536C39.2578 43.808 40.1738 43.444 41.4298 43.444C42.4378 43.444 43.3338 43.724 44.1178 44.284C44.1178 44.732 44.0618 45.3 43.9498 45.988C43.8378 46.012 43.6058 46.024 43.2538 46.024L42.8938 44.536C42.3258 44.432 41.8698 44.38 41.5258 44.38C40.8938 44.38 40.3378 44.468 39.8578 44.644L39.6298 44.728C39.5818 44.808 39.5218 44.928 39.4498 45.088C39.3778 45.24 39.2818 45.564 39.1618 46.06C39.0498 46.556 38.9938 47.064 38.9938 47.584C38.9938 48.712 39.1778 49.608 39.5458 50.272C39.9218 50.936 40.5178 51.268 41.3338 51.268C41.9178 51.268 42.3578 51.208 42.6538 51.088C42.7338 51.048 42.8498 50.988 43.0018 50.908L43.2538 49.468L43.9498 49.504C44.0698 50.328 44.1298 50.996 44.1298 51.508C43.9618 51.636 43.5978 51.776 43.0378 51.928C42.4858 52.08 41.9258 52.156 41.3578 52.156ZM49.9357 48.076L49.8757 51.172C50.2197 51.196 50.5637 51.252 50.9077 51.34L50.8837 51.76C50.7557 51.824 50.5237 51.896 50.1877 51.976C49.8597 52.048 49.5357 52.084 49.2157 52.084C49.0717 51.796 48.9917 51.52 48.9757 51.256C48.0637 51.856 47.4237 52.156 47.0557 52.156C46.4877 52.156 46.0317 52.004 45.6877 51.7C45.3437 51.396 45.1717 50.972 45.1717 50.428C45.1717 49.172 45.9397 48.524 47.4757 48.484C48.3717 48.46 48.8237 48.448 48.8317 48.448L48.8197 48.04C48.8037 47.488 48.6997 47.092 48.5077 46.852C48.3157 46.604 47.9717 46.48 47.4757 46.48C47.2677 46.48 47.0437 46.528 46.8037 46.624L46.5157 47.824C46.4757 47.832 46.4077 47.836 46.3117 47.836L45.8197 47.8C45.6917 47.456 45.6237 46.98 45.6157 46.372C45.7677 46.292 46.1157 46.172 46.6597 46.012C47.2037 45.844 47.5517 45.76 47.7037 45.76C48.5197 45.76 49.0957 45.94 49.4317 46.3C49.7677 46.66 49.9357 47.252 49.9357 48.076ZM47.3197 51.34C47.5517 51.34 48.0877 51.08 48.9277 50.56L48.8677 49.06C48.3237 49.108 47.8677 49.152 47.4997 49.192C47.1317 49.232 46.8357 49.34 46.6117 49.516C46.3877 49.684 46.2757 49.952 46.2757 50.32C46.2757 51 46.6237 51.34 47.3197 51.34ZM55.2644 46.768C55.2244 46.728 55.1364 46.708 55.0004 46.708C54.8644 46.708 54.6604 46.756 54.3884 46.852C54.1244 46.948 53.8844 47.06 53.6684 47.188C53.6204 48.964 53.5884 50.296 53.5724 51.184L54.5804 51.28C54.5804 51.504 54.5124 51.744 54.3764 52H51.6164L51.5804 51.58C51.9484 51.452 52.3084 51.356 52.6604 51.292C52.6124 49.26 52.5724 47.756 52.5404 46.78C52.1004 46.756 51.7484 46.708 51.4844 46.636L51.5324 46.012C51.9564 45.892 52.5844 45.832 53.4164 45.832C53.5444 46.032 53.6244 46.288 53.6564 46.6C54.5764 46.04 55.1244 45.76 55.3004 45.76C55.4764 45.76 55.6804 45.796 55.9124 45.868C56.1444 45.932 56.3164 46.004 56.4284 46.084C56.4284 46.884 56.3524 47.536 56.2004 48.04C56.0884 48.072 55.9564 48.088 55.8044 48.088C55.6604 48.088 55.5604 48.084 55.5044 48.076L55.2644 46.768Z" fill="black"/>
</svg>
